<svg xmlns="http://www.w3.org/2000/svg" viewBox="0 0 14.2 16"><defs><style>.cls-1{fill:#f05c89;}</style></defs><g id="Layer_2" data-name="Layer 2"><g id="Layer_1-2" data-name="Layer 1"><path class="cls-1" d="M12.43,8.88a3.47,3.47,0,0,0-3-2.16H7.66a12,12,0,0,0,.59-1.4L8.37,5c1.6.17,3.32.25,4.65-.63a2.4,2.4,0,0,0,.9-3.19C13.4.23,12.06-.51,10,.44,8.63,1.08,8.1,2.63,7.7,4a10,10,0,0,0-3.07,0A6.35,6.35,0,0,0,1.16,6.24a.46.46,0,0,0,.76.53,5.45,5.45,0,0,1,2.9-2,8.91,8.91,0,0,1,2.61.05c0,.06,0,.11,0,.16a12.69,12.69,0,0,1-.76,1.7H4.34a3.47,3.47,0,0,0-3,2.16A18.7,18.7,0,0,0,.08,13.27C-.3,15.2.75,16,2,16A2.5,2.5,0,0,0,3.9,15a3.87,3.87,0,0,1,2.84-1.35H7A3.91,3.91,0,0,1,9.84,15a2.5,2.5,0,0,0,1.89,1c1.25,0,2.31-.8,1.93-2.73A18.7,18.7,0,0,0,12.43,8.88Zm-2-7.6c1.48-.68,2.38-.25,2.71.33a1.48,1.48,0,0,1-.61,2,5.87,5.87,0,0,1-3.87.5C9,2.92,9.43,1.73,10.4,1.28Zm-1.1,9L7.68,11.85a1.16,1.16,0,0,1-1.62,0L4.44,10.23A1.15,1.15,0,1,1,6.06,8.61l.81.81.81-.81A1.15,1.15,0,0,1,9.3,10.23Z"/></g></g></svg>